<svg xmlns="http://www.w3.org/2000/svg" xmlns:xlink="http://www.w3.org/1999/xlink" width="1920" zoomAndPan="magnify" viewBox="0 0 1440 809.999993" height="1080" preserveAspectRatio="xMidYMid meet" version="1.0"><defs><clipPath id="07557321b0"><path d="M 714.992188 293.351562 L 720.992188 293.351562 L 720.992188 451.601562 L 714.992188 451.601562 Z M 714.992188 293.351562 " clip-rule="nonzero"/></clipPath></defs><path fill="#ff6648" d="M 720 454.558594 C 720 454.558594 624.238281 433.367188 504.539062 446.570312 C 389.664062 459.234375 336.960938 488.988281 211.5 488.988281 C 67.03125 488.988281 0 454.558594 0 454.558594 L 0 292.882812 C 0 292.882812 95.398438 327.308594 211.5 327.308594 C 349.632812 327.308594 383.363281 291.515625 501.191406 285.183594 C 629.207031 278.273438 720 292.882812 720 292.882812 Z M 720 454.558594 " fill-opacity="1" fill-rule="nonzero"/><path fill="#ff6648" d="M 1440 454.558594 C 1440 454.558594 1344.238281 433.367188 1224.539062 446.570312 C 1109.664062 459.234375 1056.960938 488.988281 931.5 488.988281 C 787.03125 488.988281 720 454.558594 720 454.558594 L 720 292.882812 C 720 292.882812 815.398438 327.308594 931.5 327.308594 C 1069.632812 327.308594 1103.363281 291.515625 1221.191406 285.183594 C 1349.207031 278.273438 1440 292.882812 1440 292.882812 Z M 1440 454.558594 " fill-opacity="1" fill-rule="nonzero"/><g clip-path="url(#07557321b0)"><path fill="#ff6648" d="M 714.992188 293.382812 L 720.992188 293.382812 L 720.992188 451.570312 L 714.992188 451.570312 L 714.992188 293.382812 " fill-opacity="1" fill-rule="nonzero"/></g></svg>